# xmcd
#
# Track frame offsets:
#	150
#	12982
#	29342
#	46435
#	61292
#	72980
#	87752
#	101852
#	113205
#	126437
#
# Disc length: 1827 seconds
#
# Revision: 2
# Processed by: cddbd v1.5.1PL0 Copyright (c) Steve Scherf et al.
# Submitted via: EasyCDDAExtractor 8.2.1.1
#
DISCID=8a07210a
DTITLE=Various Artist - It's All In The Game
DYEAR=1984
DGENRE=Country
TTITLE0=Merle Haggard - Let's Chase Each Other Around The Room
TTITLE1=Merle Haggard - A Place To Fall Apart
TTITLE2=Merle Haggard - It's All In The Game
TTITLE3=Merle Haggard - Little Hotel Room
TTITLE4=Merle Haggard - I Never Go Home Anymore
TTITLE5=Merle Haggard - All I Want To Do Is Sing My Song
TTITLE6=Merle Haggard with Janie Fricke - Natural High
TTITLE7=Merle Haggard - Thank Heaven For Little Girls
TTITLE8=Merle Haggard - To All The Girls I've Loved Before
TTITLE9=Merle Haggard - You Nearly Lose Your Mind
EXTD=
EXTT0=
EXTT1=
EXTT2=
EXTT3=
EXTT4=
EXTT5=
EXTT6=
EXTT7=
EXTT8=
EXTT9=
PLAYORDER=
